<svg xmlns="http://www.w3.org/2000/svg" xmlns:xlink="http://www.w3.org/1999/xlink" viewBox="0 0 100 100"><defs><style>.cls-1{fill:#b5d995;}.cls-2{fill:url(#New_Gradient_Swatch_3);}.cls-3{fill:#7f516f;fill-opacity:0.69;}.cls-4{fill:url(#linear-gradient);}.cls-5{fill:url(#New_Gradient_Swatch_1);}.cls-6{fill:#e091be;}.cls-7{fill:#c078a7;}.cls-8{fill:#402838;}.cls-9{fill:url(#New_Gradient_Swatch_2);}</style><linearGradient id="New_Gradient_Swatch_3" x1="16.39" y1="1.43" x2="85.88" y2="101.84" gradientUnits="userSpaceOnUse"><stop offset="0" stop-color="#b5d995"/><stop offset="0.19" stop-color="#a9d48c"/><stop offset="0.54" stop-color="#8bc773"/><stop offset="0.99" stop-color="#59b34c"/><stop offset="1" stop-color="#58b24b"/></linearGradient><linearGradient id="linear-gradient" x1="61.2" y1="55.25" x2="77.34" y2="58.85" gradientUnits="userSpaceOnUse"><stop offset="0.28" stop-color="#c078a7"/><stop offset="0.38" stop-color="#ca80ae"/><stop offset="0.52" stop-color="#e091be"/><stop offset="0.82" stop-color="#e69bc3"/><stop offset="1" stop-color="#eca3c8"/></linearGradient><linearGradient id="New_Gradient_Swatch_1" x1="34.92" y1="38.25" x2="56.33" y2="64.06" gradientUnits="userSpaceOnUse"><stop offset="0" stop-color="#eca3c8"/><stop offset="0.18" stop-color="#e69ac3"/><stop offset="0.3" stop-color="#e091be"/><stop offset="1" stop-color="#c078a7"/></linearGradient><linearGradient id="New_Gradient_Swatch_2" x1="47.29" y1="43.56" x2="47.38" y2="8.57" gradientUnits="userSpaceOnUse"><stop offset="0" stop-color="#fff" stop-opacity="0.1"/><stop offset="0.07" stop-color="#fbeff6" stop-opacity="0.12"/><stop offset="0.15" stop-color="#f1c3db" stop-opacity="0.19"/><stop offset="0.2" stop-color="#e99fc6" stop-opacity="0.25"/><stop offset="0.21" stop-color="#e99fc6" stop-opacity="0.26"/><stop offset="0.4" stop-color="#eba2c7" stop-opacity="0.43"/><stop offset="0.5" stop-color="#eca3c8" stop-opacity="0.5"/><stop offset="0.58" stop-color="#eca3c8" stop-opacity="0.46"/><stop offset="0.71" stop-color="#eca3c8" stop-opacity="0.35"/><stop offset="0.8" stop-color="#eca3c8" stop-opacity="0.25"/><stop offset="0.84" stop-color="#edb8d3" stop-opacity="0.21"/><stop offset="0.93" stop-color="#f0e3ea" stop-opacity="0.13"/><stop offset="1" stop-color="#f1f2f2" stop-opacity="0.1"/></linearGradient></defs><title>Coffeelogo</title><g id="Layer_2" data-name="Layer 2"><g id="Layer_1-2" data-name="Layer 1"><g id="Coffee"><circle class="cls-1" cx="50" cy="50" r="50"/><circle class="cls-2" cx="50" cy="50" r="50"/><ellipse class="cls-3" cx="54.88" cy="77.13" rx="17.54" ry="4.24"/><path class="cls-4" d="M68,46.62A10.15,10.15,0,1,0,78.17,56.77,10.14,10.14,0,0,0,68,46.62Zm0,16.53a6.38,6.38,0,1,1,6.38-6.38A6.38,6.38,0,0,1,68,63.15Z"/><path class="cls-5" d="M67.7,44.1c-.34-1.28-2.49-2.16-3.18-2.16H29.93a3.22,3.22,0,0,0-3.13,2.3c-.62,1.73.05,14.53,3.25,21.16,1.69,3.5,7.07,9.52,8.91,10.2.27.42,4,.74,8.61.74,4.39,0,8-.3,8.55-.69,1-.25,6.82-5.6,8.64-10.25C66.45,61.07,68.9,48.53,67.7,44.1Z"/><ellipse class="cls-6" cx="47.03" cy="42.79" rx="19.04" ry="2.56"/><ellipse class="cls-7" cx="47.03" cy="42.79" rx="17.43" ry="2.03"/><path class="cls-8" d="M30.35,43.38c2.16.83,8.81,1.44,16.68,1.44s14.52-.61,16.68-1.44c-2.16-.84-8.81-1.44-16.68-1.44S32.51,42.54,30.35,43.38Z"/><path class="cls-9" d="M47.24,8.81a10.25,10.25,0,0,1,3.54,4.76,10.61,10.61,0,0,1,.54,2.59c.09,1.65-.42,2.27-.46,3.76a8.42,8.42,0,0,0,.76,3.55c.9,2.16,2.23,2.75,4.4,4.83a24.45,24.45,0,0,1,6,10,5.07,5.07,0,0,1-.12,2.6c-.18.69-.63,1.14-1.92,1.62-1.47.62-9.61,1.66-12.71-.35-2.54-1.64-12.35,0-12.35,0-2,0-2.39-2.44-2.39-3.87a8.44,8.44,0,0,1,.76-2.59c2.16-4.43,6.93-3.69,8.72-7.19,1.63-3.2-1.63-5.24.25-9.14,1.11-2.3,2.77-2.44,4-5.33A13.74,13.74,0,0,0,47.24,8.81Z"/></g></g></g></svg>