<svg xmlns="http://www.w3.org/2000/svg" viewBox="0 0 186.7 194.15"><defs><style>.cls-1{fill:#282828;}</style></defs><title>Asset 1logo-moon</title><g id="Layer_2" data-name="Layer 2"><g id="Layer_1-2" data-name="Layer 1"><path class="cls-1" d="M86.7,193.65a99.3,99.3,0,0,1-82-43.1,99.48,99.48,0,0,0,44,10.1A100.61,100.61,0,0,0,149.2,60.15,100,100,0,0,0,133.61,6.38,99.51,99.51,0,0,1,86.7,193.65Z"/><path d="M135,7.73A99,99,0,1,1,6.22,151.82a100,100,0,0,0,42.48,9.33,101.12,101.12,0,0,0,101-101A100.54,100.54,0,0,0,135,7.73m-2.88-2.68a99.47,99.47,0,0,1,16.54,55.1A100,100,0,0,1,3.24,149.25,100,100,0,1,0,132.16,5.05Z"/><polygon class="cls-1" points="24.39 57.73 1.07 35 33.29 30.32 47.7 1.13 62.1 30.32 94.32 35 71.01 57.73 76.51 89.81 47.7 74.66 18.88 89.81 24.39 57.73"/><path d="M47.7,2.26,61.54,30.31l.23.47.52.07,30.95,4.5L70.85,57.18l-.38.37.09.52L75.85,88.9,48.16,74.34l-.46-.24-.47.24L19.55,88.9l5.28-30.83.09-.52-.37-.37L2.15,35.35l31-4.5.52-.07.23-.47,13.85-28M47.7,0,33,29.86,0,34.65,23.85,57.9,18.22,90.72,47.7,75.23,77.17,90.72,71.54,57.9,95.39,34.65l-33-4.79L47.7,0Z"/></g></g></svg>